<svg xmlns="http://www.w3.org/2000/svg" version="1.1" xmlns:xlink="http://www.w3.org/1999/xlink" xmlns:svgjs="http://svgjs.dev/svgjs" width="1500" height="295" viewBox="0 0 1500 295"><g transform="matrix(1,0,0,1,-0.9090909090909918,-1.5817109270623746)"><svg viewBox="0 0 396 78" data-background-color="#ffffff" preserveAspectRatio="xMidYMid meet" height="295" width="1500" xmlns="http://www.w3.org/2000/svg" xmlns:xlink="http://www.w3.org/1999/xlink"><g id="tight-bounds" transform="matrix(1,0,0,1,0.2400000000000091,0.418215092579203)"><svg viewBox="0 0 395.52 77.16356981484158" height="77.16356981484158" width="395.52"><g><svg viewBox="0 0 583.2680190277698 113.79207753593666" height="77.16356981484158" width="395.52"><g><rect width="7.172646442642151" height="113.79207753593666" x="161.79881121695453" y="0" fill="#ffffff" opacity="1" stroke-width="0" stroke="transparent" fill-opacity="1" class="rect-yte-0" data-fill-palette-color="primary" rx="1%" id="yte-0" data-palette-color="#ffffff"></rect></g><g transform="matrix(1,0,0,1,187.74801902776986,0.283064869492371)"><svg viewBox="0 0 395.52 113.22594779695191" height="113.22594779695191" width="395.52"><g id="textblocktransform"><svg viewBox="0 0 395.52 113.22594779695191" height="113.22594779695191" width="395.52" id="textblock"><g><svg viewBox="0 0 395.52 79.53608739631801" height="79.53608739631801" width="395.52"><g transform="matrix(1,0,0,1,0,0)"><svg width="395.52" viewBox="1.3 -38.7 247.13 49.7" height="79.53608739631801" data-palette-color="#ffffff"><path d="M11.5-19.25Q9.3-19.25 8.1-17.68 6.9-16.1 6.9-12.85 6.9-9.6 8.13-7.63 9.35-5.65 11.7-5.65L11.7-5.65Q12.9-5.65 14.05-6.4 15.2-7.15 15.8-7.9L15.8-7.9 16.35-8.7 18.85-6.1Q18.7-5.85 18.48-5.4 18.25-4.95 17.38-3.8 16.5-2.65 15.53-1.78 14.55-0.9 13-0.18 11.45 0.55 9.75 0.55L9.75 0.55Q6 0.55 3.65-2.5 1.3-5.55 1.3-10.45L1.3-10.45Q1.3-16.55 4.85-21.15 8.4-25.75 13.15-25.75L13.15-25.75Q14.6-25.75 16.05-25.33 17.5-24.9 19-24L19-24 15.5-17.85Q13.7-19.25 11.5-19.25ZM20.65-10.45Q20.65-16.85 24.1-21.3 27.55-25.75 32.17-25.75 36.8-25.75 39.37-22.75 41.95-19.75 41.95-14.8L41.95-14.8Q41.95-8.2 38.62-3.83 35.3 0.55 30.25 0.55L30.25 0.55Q26.1 0.55 23.37-2.58 20.65-5.7 20.65-10.45L20.65-10.45ZM36.35-12.2L36.35-12.2Q36.35-19.45 31.4-19.45L31.4-19.45Q26.25-19.45 26.25-12.65L26.25-12.65Q26.25-9.1 27.7-7.1 29.15-5.1 31.52-5.1 33.9-5.1 35.12-6.93 36.35-8.75 36.35-12.2ZM59.45-4.9L59.45-4.9Q55.55 0 52.7 0L52.7 0Q49.14 0 46.87-2.9 44.59-5.8 44.59-10.35L44.59-10.35Q44.59-16.6 48.07-20.9 51.55-25.2 56.59-25.2L56.59-25.2 59.39-24.8 59.39-25.75 58.8-37.45 65.64-38.7 65-13 65-8.6Q65-5.6 66.5-1.7L66.5-1.7 61.09 0.55Q59.64-2.45 59.45-4.9ZM50.2-12.95Q50.2-9.75 51.37-7.95 52.55-6.15 54.77-6.15 56.99-6.15 59.39-7.95L59.39-7.95 59.39-18.75Q56.39-19.35 54.95-19.35L54.95-19.35Q52.7-19.35 51.45-17.75 50.2-16.15 50.2-12.95ZM80.34-5.1L80.34-5.1Q81.79-5.1 83.39-5.85 84.99-6.6 85.89-7.35L85.89-7.35 86.79-8.1 89.09-5.3Q88.59-4.45 87.54-3.35 86.49-2.25 85.42-1.48 84.34-0.7 82.57-0.08 80.79 0.55 78.89 0.55L78.89 0.55Q74.84 0.55 72.29-2.53 69.74-5.6 69.74-10.45L69.74-10.45Q69.74-16.55 73.29-21.15 76.84-25.75 81.59-25.75L81.59-25.75Q85.24-25.75 87.27-23.7 89.29-21.65 89.29-17.95L89.29-17.95Q89.29-15.75 88.54-12.95L88.54-12.95 87.54-11.9 75.04-10.75Q75.89-5.1 80.34-5.1ZM80.34-20.6L80.34-20.6Q78.14-20.6 76.64-18.82 75.14-17.05 74.89-14.3L74.89-14.3 83.39-15.35Q83.54-16.5 83.54-17.25L83.54-17.25Q83.54-20.6 80.34-20.6ZM101.19-4.65L101.19-4.65Q103.79-4.65 103.79-6.95L103.79-6.95Q103.79-7.75 102.66-8.45 101.54-9.15 99.91-9.85 98.29-10.55 96.66-11.43 95.04-12.3 93.91-13.85 92.79-15.4 92.79-17.4L92.79-17.4Q92.79-20.75 95.74-23.25 98.69-25.75 102.54-25.75L102.54-25.75Q104.34-25.75 106.06-25.33 107.79-24.9 109.39-24L109.39-24 106.04-17.9Q105.69-18.2 105.14-18.65 104.59-19.1 103.06-19.83 101.54-20.55 100.36-20.55 99.19-20.55 98.56-20.03 97.94-19.5 97.94-18.57 97.94-17.65 99.66-16.73 101.39-15.8 103.44-15.03 105.49-14.25 107.22-12.48 108.94-10.7 108.94-8.25L108.94-8.25Q108.94-4.75 106.06-2.1 103.19 0.55 99.44 0.55L99.44 0.55Q97.04 0.55 94.96-0.5 92.89-1.55 91.99-2.6L91.99-2.6 91.09-3.65 95.04-8.25Q95.34-7.85 95.89-7.25 96.44-6.65 98.06-5.65 99.69-4.65 101.19-4.65ZM120.49 11L114.04 9.65 119.19-1.9 115.49-12 110.44-24.15 117.09-25.4 120.29-14.75 121.94-9.7 122.59-9.7 123.79-13.35 127.39-25.45 133.54-24.7 124.69-1.45 120.49 11ZM151.09-12.65Q151.09-16.1 150.49-17.25 149.88-18.4 147.69-18.4 145.49-18.4 142.69-16.65L142.69-16.65 142.69-13 143.24-1.25 136.53 0 137.13-12.15Q136.94-18.85 136.03-24.15L136.03-24.15 142.09-25.45Q142.44-22.55 142.59-19.8L142.59-19.8Q143.34-20.8 144.28-21.78 145.24-22.75 147.28-23.98 149.34-25.2 151.61-25.2 153.88-25.2 155.44-23.43 156.99-21.65 156.99-18.6L156.99-18.6 156.69-13 157.24-1 150.49 0.25 151.09-12.65ZM171.73-5.1L171.73-5.1Q173.18-5.1 174.78-5.85 176.38-6.6 177.28-7.35L177.28-7.35 178.18-8.1 180.48-5.3Q179.98-4.45 178.93-3.35 177.88-2.25 176.81-1.48 175.73-0.7 173.96-0.08 172.18 0.55 170.28 0.55L170.28 0.55Q166.23 0.55 163.68-2.53 161.13-5.6 161.13-10.45L161.13-10.45Q161.13-16.55 164.68-21.15 168.23-25.75 172.98-25.75L172.98-25.75Q176.63-25.75 178.66-23.7 180.68-21.65 180.68-17.95L180.68-17.95Q180.68-15.75 179.93-12.95L179.93-12.95 178.93-11.9 166.43-10.75Q167.28-5.1 171.73-5.1ZM171.73-20.6L171.73-20.6Q169.53-20.6 168.03-18.82 166.53-17.05 166.28-14.3L166.28-14.3 174.78-15.35Q174.93-16.5 174.93-17.25L174.93-17.25Q174.93-20.6 171.73-20.6ZM184.48-24.15L184.48-24.15 190.53-25.45Q190.98-21.6 191.13-18.15L191.13-18.15Q195.68-25.2 199.68-25.2L199.68-25.2 199.13-17.4Q196.23-17.4 194.56-16.88 192.88-16.35 191.13-14.8L191.13-14.8 191.13-13 191.68-1.25 184.98 0 185.58-12.15Q185.38-18.85 184.48-24.15ZM201.08 4.95L201.08 4.95Q201.08 0.55 209.28-1.95L209.28-1.95Q207.33-2.95 207.33-4.55L207.33-4.55Q207.33-5.2 207.83-5.85 208.33-6.5 209.28-7.2L209.28-7.2 209.28-7.6Q205.68-7.6 203.55-9.6 201.43-11.6 201.43-14.95L201.43-14.95Q201.43-19.3 204.98-22.53 208.53-25.75 213.38-25.75L213.38-25.75Q214.63-25.75 217.03-25.25 219.43-24.75 221.73-24.75L221.73-24.75 225.58-24.75 225.08-20.4 221.33-20.85Q221.83-19.4 221.83-17.55 221.83-15.7 220.95-13.88 220.08-12.05 218.85-10.95 217.63-9.85 216.4-9.03 215.18-8.2 214.3-7.58 213.43-6.95 213.43-6.45L213.43-6.45Q213.43-5.5 215.43-4.8L215.43-4.8Q220.73-2.65 222.6-1.15 224.48 0.35 224.48 2.55L224.48 2.55Q224.48 6.25 220.75 8.63 217.03 11 211.88 11 206.73 11 203.9 9.35 201.08 7.7 201.08 4.95ZM216.18-16.05L216.18-16.05Q216.18-18.5 215.08-19.65 213.98-20.8 211.63-20.8L211.63-20.8Q207.08-20.8 207.08-16.32 207.08-11.85 211.93-11.85L211.93-11.85Q216.18-11.85 216.18-16.05ZM217.98 3.3L217.98 3.3Q217.98 2.4 217.03 1.63 216.08 0.85 213.63-0.2L213.63-0.2Q209.98 0.8 208.6 1.65 207.23 2.5 207.23 3.75 207.23 5 208.6 5.78 209.98 6.55 212.43 6.55 214.88 6.55 216.43 5.65 217.98 4.75 217.98 3.3ZM235.38 11L228.93 9.65 234.08-1.9 230.38-12 225.33-24.15 231.98-25.4 235.18-14.75 236.83-9.7 237.48-9.7 238.68-13.35 242.28-25.45 248.43-24.7 239.58-1.45 235.38 11Z" opacity="1" transform="matrix(1,0,0,1,0,0)" fill="#ffffff" class="wordmark-text-0" data-fill-palette-color="primary" id="text-0"></path></svg></g></svg></g><g transform="matrix(1,0,0,1,0,98.31264876449117)"><svg viewBox="0 0 232.209792 14.913299032460733" height="14.913299032460733" width="232.209792"><g transform="matrix(1,0,0,1,0,0)"><svg width="232.209792" viewBox="0 -35.5 716.16 46" height="14.913299032460733" data-palette-color="#7997ab"><path d="M8.5 0L8.5-32.5 0-32.5 0-35 20.1-35 20.1-32.5 11.3-32.5 11.3 0 8.5 0ZM38.5 0L38.5-17.15Q38.5-20.2 36.72-21.58 34.95-22.95 32.15-22.95L32.15-22.95Q30.45-22.95 28.7-22.48 26.95-22 25.6-21.25L25.6-21.25 25.6 0 22.8 0 22.8-35 25.6-35 25.6-23.7Q26.85-24.55 28.6-25.03 30.35-25.5 32.25-25.5L32.25-25.5Q34.85-25.5 37-24.55L37-24.55Q39-23.65 40.12-21.85 41.25-20.05 41.25-17.3L41.25-17.3 41.25 0 38.5 0ZM62.75-1.75Q60.95-0.6 58.65 0 56.35 0.6 54.05 0.6L54.05 0.6Q50.35 0.6 48.17-1.23 46-3.05 46-6.7L46-6.7 46-16.95Q46-21 48.52-23.25 51.05-25.5 55.2-25.5L55.2-25.5Q59.35-25.5 61.67-23.28 64-21.05 64-17.1L64-17.1 64-10.6 48.8-9.75 48.8-6.7Q48.8-4.3 50.35-3.1 51.9-1.9 54.4-1.9L54.4-1.9Q57.9-1.9 61.65-3.9L61.65-3.9 62.75-1.75ZM61.2-17.45Q61.2-20.55 59.25-21.83 57.3-23.1 55.15-23.1L55.15-23.1Q52.4-23.1 50.6-21.6 48.8-20.1 48.8-16.9L48.8-16.9 48.8-12.5 61.2-13.1 61.2-17.45ZM105.54 0L86.54-29.85 86.54 0 83.74 0 83.74-35 86.54-35 105.54-5.15 105.54-35 108.34-35 108.34 0 105.54 0ZM130.84-1.75Q129.04-0.6 126.74 0 124.44 0.6 122.14 0.6L122.14 0.6Q118.44 0.6 116.26-1.23 114.09-3.05 114.09-6.7L114.09-6.7 114.09-16.95Q114.09-21 116.61-23.25 119.14-25.5 123.29-25.5L123.29-25.5Q127.44-25.5 129.76-23.28 132.09-21.05 132.09-17.1L132.09-17.1 132.09-10.6 116.89-9.75 116.89-6.7Q116.89-4.3 118.44-3.1 119.99-1.9 122.49-1.9L122.49-1.9Q125.99-1.9 129.74-3.9L129.74-3.9 130.84-1.75ZM129.29-17.45Q129.29-20.55 127.34-21.83 125.39-23.1 123.24-23.1L123.24-23.1Q120.49-23.1 118.69-21.6 116.89-20.1 116.89-16.9L116.89-16.9 116.89-12.5 129.29-13.1 129.29-17.45ZM152.04 0L145.89-9.85 139.74 0 136.44 0 144.24-12.45 136.44-25.05 139.59-25.05 145.89-15.05 152.19-25.05 155.34-25.05 147.49-12.45 155.34 0 152.04 0ZM174.68 0L174.88-2.55Q173.68-1.05 171.86-0.25 170.03 0.55 168.18 0.55L168.18 0.55Q158.78 0.55 158.78-8.6L158.78-8.6 158.78-25.05 161.58-25.05 161.58-8.25Q161.58-5.05 163.36-3.5 165.13-1.95 168.18-1.95L168.18-1.95Q171.18-1.95 172.91-3.48 174.63-5 174.63-8.25L174.63-8.25 174.63-25.05 177.43-25.05 177.43 0 174.68 0ZM183.78-6.35Q184.08-4.1 186.03-2.98 187.98-1.85 190.38-1.85L190.38-1.85Q192.63-1.85 194.48-2.88 196.33-3.9 196.33-6.2L196.33-6.2Q196.33-7.7 195.46-8.68 194.58-9.65 193.28-10.25 191.98-10.85 189.78-11.55L189.78-11.55Q187.33-12.35 185.78-13.05 184.23-13.75 183.08-15.03 181.93-16.3 181.73-18.25L181.73-18.25 181.68-18.85Q181.68-20.5 182.61-22.08 183.53-23.65 185.46-24.65 187.38-25.65 190.28-25.65L190.28-25.65Q191.88-25.65 193.11-25.33 194.33-25 195.03-24.65 195.73-24.3 195.88-24.2L195.88-24.2 194.93-21.9Q194.78-22 194.21-22.3 193.63-22.6 192.58-22.9 191.53-23.2 190.28-23.2L190.28-23.2Q187.88-23.2 186.18-22.08 184.48-20.95 184.48-18.95L184.48-18.95Q184.48-17.05 186.03-16.05 187.58-15.05 190.78-14.05L190.78-14.05Q193.48-13.15 195.13-12.35 196.78-11.55 197.96-10.08 199.13-8.6 199.13-6.25L199.13-6.25Q199.13-3.25 196.91-1.25 194.68 0.75 190.38 0.75L190.38 0.75Q187.53 0.75 185.46-0.23 183.38-1.2 182.31-2.8 181.23-4.4 181.13-6.35L181.13-6.35 183.78-6.35ZM237.33-9.2Q237.33-5 235.03-2.25 232.73 0.5 228.08 0.5L228.08 0.5Q223.43 0.5 221.05-2.27 218.68-5.05 218.68-9.2L218.68-9.2 218.68-15.8Q218.68-20.55 221.1-23.08 223.53-25.6 228.08-25.6L228.08-25.6Q232.43-25.6 234.88-22.98 237.33-20.35 237.33-15.8L237.33-15.8 237.33-9.2ZM234.53-15.8Q234.53-19.55 232.8-21.3 231.08-23.05 228.08-23.05L228.08-23.05Q224.98-23.05 223.23-21.3 221.48-19.55 221.48-15.8L221.48-15.8 221.48-8.7Q221.48-5.7 223.25-3.85 225.03-2 228.08-2L228.08-2Q231.18-2 232.85-3.83 234.53-5.65 234.53-8.7L234.53-8.7 234.53-15.8ZM242.87 0L242.87-27.45Q242.87-31.6 244.97-33.55 247.07-35.5 250.17-35.5L250.17-35.5Q251.12-35.5 252.02-35.35L252.02-35.35 251.57-32.9Q250.67-33 250.27-33L250.27-33Q245.67-33 245.67-27.45L245.67-27.45 245.67-25.05 251.37-25.05 250.17-22.4 245.67-22.4 245.67 0 242.87 0ZM272.27-8.9Q272.42-7.2 273.54-5.65 274.67-4.1 276.64-3.13 278.62-2.15 281.17-2.15L281.17-2.15Q285.02-2.15 287.59-3.88 290.17-5.6 290.17-9.35L290.17-9.35Q290.17-11.55 288.92-13.03 287.67-14.5 285.82-15.38 283.97-16.25 280.77-17.4L280.77-17.4Q277.32-18.6 275.24-19.63 273.17-20.65 271.74-22.4 270.32-24.15 270.32-26.9L270.32-26.9Q270.32-29.1 271.57-31.08 272.82-33.05 275.34-34.27 277.87-35.5 281.57-35.5L281.57-35.5Q284.02-35.5 285.62-35.15 287.22-34.8 288.87-34L288.87-34 288.02-31.35Q285.17-32.8 281.67-32.8L281.67-32.8Q277.82-32.8 275.52-31.2 273.22-29.6 273.22-26.75L273.22-26.75Q273.22-24.95 274.37-23.73 275.52-22.5 277.19-21.75 278.87-21 281.87-19.95L281.87-19.95Q285.52-18.7 287.77-17.63 290.02-16.55 291.59-14.58 293.17-12.6 293.17-9.6L293.17-9.6Q293.17-5 290.24-2.23 287.32 0.55 281.22 0.55L281.22 0.55Q277.52 0.55 274.89-0.83 272.27-2.2 270.89-4.38 269.52-6.55 269.42-8.9L269.42-8.9 272.27-8.9ZM314.12-1.75Q312.31-0.6 310.01 0 307.72 0.6 305.42 0.6L305.42 0.6Q301.72 0.6 299.54-1.23 297.37-3.05 297.37-6.7L297.37-6.7 297.37-16.95Q297.37-21 299.89-23.25 302.42-25.5 306.56-25.5L306.56-25.5Q310.72-25.5 313.04-23.28 315.37-21.05 315.37-17.1L315.37-17.1 315.37-10.6 300.17-9.75 300.17-6.7Q300.17-4.3 301.72-3.1 303.26-1.9 305.76-1.9L305.76-1.9Q309.26-1.9 313.01-3.9L313.01-3.9 314.12-1.75ZM312.56-17.45Q312.56-20.55 310.62-21.83 308.67-23.1 306.51-23.1L306.51-23.1Q303.76-23.1 301.97-21.6 300.17-20.1 300.17-16.9L300.17-16.9 300.17-12.5 312.56-13.1 312.56-17.45ZM335.21-0.3Q332.11 0.5 329.21 0.5L329.21 0.5Q326.51 0.5 324.71-0.1L324.71-0.1Q321.76-1.1 320.44-3.18 319.11-5.25 319.11-9L319.11-9 319.11-15.4Q319.11-20.35 321.71-22.93 324.31-25.5 328.41-25.5L328.41-25.5Q331.66-25.5 335.11-23.9L335.11-23.9 334.31-21.85Q331.46-23 328.81-23L328.81-23Q325.71-23 323.81-21.23 321.91-19.45 321.91-15.7L321.91-15.7 321.91-8.45Q321.91-5 323.99-3.45 326.06-1.9 329.51-1.9L329.51-1.9Q331.76-1.9 334.61-2.55L334.61-2.55 335.21-0.3ZM354.16 0L354.36-2.55Q353.16-1.05 351.33-0.25 349.51 0.55 347.66 0.55L347.66 0.55Q338.26 0.55 338.26-8.6L338.26-8.6 338.26-25.05 341.06-25.05 341.06-8.25Q341.06-5.05 342.83-3.5 344.61-1.95 347.66-1.95L347.66-1.95Q350.66-1.95 352.38-3.48 354.11-5 354.11-8.25L354.11-8.25 354.11-25.05 356.91-25.05 356.91 0 354.16 0ZM361.86 0L361.86-25.05 364.66-25.05 364.51-23.3Q366.86-25.5 370.66-25.5L370.66-25.5Q372.01-25.5 374.36-25.05L374.36-25.05 373.61-22.5Q372.01-23 370.26-23L370.26-23Q367.96-23 366.31-22.15 364.66-21.3 364.66-19.6L364.66-19.6 364.66 0 361.86 0ZM379.75-32.15Q379.1-32.15 378.58-32.68 378.05-33.2 378.05-33.85L378.05-33.85Q378.05-34.5 378.55-35 379.05-35.5 379.75-35.5L379.75-35.5Q380.45-35.5 380.93-35.02 381.4-34.55 381.4-33.85L381.4-33.85Q381.4-33.15 380.9-32.65 380.4-32.15 379.75-32.15L379.75-32.15ZM378.3 0L378.3-25.05 381.1-25.05 381.1 0 378.3 0ZM392.9 0.65Q390.1-0.15 388.85-1.9 387.6-3.65 387.6-6.6L387.6-6.6 387.6-35 390.4-35 390.4-25.05 396.4-25.05 395.2-22.4 390.4-22.4 390.4-6.6Q390.4-2.6 393.7-1.5L393.7-1.5 392.9 0.65ZM412.15 8.35Q415.5 7.1 415.5 3.15L415.5 3.15 415.5-2.45Q414.55-0.85 412.65-0.13 410.75 0.6 408.55 0.6L408.55 0.6Q404.15 0.6 401.77-1.78 399.4-4.15 399.4-8.8L399.4-8.8 399.4-25.05 402.1-25.05 402.1-8.3Q402.1-5.1 403.85-3.53 405.6-1.95 408.55-1.95L408.55-1.95Q411.65-1.95 413.55-3.5 415.45-5.05 415.45-8.3L415.45-8.3 415.45-18.15Q415.45-20.55 415.6-21.73 415.75-22.9 416.52-23.93 417.3-24.95 419.1-25.5L419.1-25.5 419.85-23.6Q418.15-22.85 418.15-20.1L418.15-20.1 418.15 3.05Q418.15 6.1 416.95 7.85 415.75 9.6 412.9 10.5L412.9 10.5 412.15 8.35ZM456.54 0Q451.14 0.55 448.74 0.55L448.74 0.55Q443.49 0.55 440.39-1.4 437.29-3.35 437.29-8.45L437.29-8.45 437.29-12.6Q437.29-17.55 440.74-19.25L440.74-19.25Q442.39-20.1 444.94-20.1L444.94-20.1Q447.29-20.1 449.69-19.33 452.09-18.55 453.74-17.3L453.74-17.3Q453.74-20.05 452.14-21.68 450.54-23.3 445.99-23.3L445.99-23.3 446.14-25.45Q450.94-25.45 453.22-23.93 455.49-22.4 456.02-20.3 456.54-18.2 456.54-14.9L456.54-14.9 456.54 0ZM453.74-15.15Q451.69-16.1 449.37-16.8 447.04-17.5 445.09-17.5L445.09-17.5Q440.04-17.5 440.04-12.45L440.04-12.45 440.04-8.1Q440.04-4.85 442.29-3.38 444.54-1.9 448.69-1.9L448.69-1.9Q450.84-1.9 453.74-2.3L453.74-2.3 453.74-15.15ZM477.24 0L477.24-17.15Q477.24-20.2 475.47-21.58 473.69-22.95 470.89-22.95L470.89-22.95Q469.19-22.95 467.44-22.48 465.69-22 464.34-21.25L464.34-21.25 464.34 0 461.54 0 461.54-25.05 464.34-25.05 464.14-23.35Q465.34-24.4 467.19-24.93 469.04-25.45 471.04-25.45L471.04-25.45Q473.79-25.45 475.74-24.55L475.74-24.55Q477.74-23.65 478.87-21.85 479.99-20.05 479.99-17.3L479.99-17.3 479.99 0 477.24 0ZM487.24-17.3Q487.24-22.55 491.49-24.5L491.49-24.5Q493.54-25.45 496.39-25.45L496.39-25.45Q498.24-25.45 499.96-25 501.69-24.55 502.89-23.7L502.89-23.7 502.89-35 505.69-35 505.69 0 502.94 0.25Q499.69 0.6 497.84 0.6L497.84 0.6Q495.99 0.6 494.36 0.25 492.74-0.1 491.14-0.9L491.14-0.9Q489.34-1.8 488.29-3.55 487.24-5.3 487.24-7.85L487.24-7.85 487.24-17.3ZM502.89-21.25Q501.54-22 499.79-22.48 498.04-22.95 496.34-22.95L496.34-22.95Q493.54-22.95 491.76-21.58 489.99-20.2 489.99-17.15L489.99-17.15 489.99-7.8Q489.99-1.95 498.04-1.95L498.04-1.95Q499.94-1.95 502.89-2.4L502.89-2.4 502.89-21.25ZM527.88 0L527.88-32.45 524.53-32.55 524.53-35 530.68-35 530.68 0 527.88 0ZM553.33 0L553.33-17.15Q553.33-20.2 551.56-21.58 549.78-22.95 546.98-22.95L546.98-22.95Q545.28-22.95 543.53-22.48 541.78-22 540.43-21.25L540.43-21.25 540.43 0 537.63 0 537.63-25.05 540.43-25.05 540.23-23.35Q541.43-24.4 543.28-24.93 545.13-25.45 547.13-25.45L547.13-25.45Q549.88-25.45 551.83-24.55L551.83-24.55Q553.83-23.65 554.96-21.85 556.08-20.05 556.08-17.3L556.08-17.3 556.08 0 553.33 0ZM578.33 0L578.33-17.15Q578.33-20.2 576.55-21.58 574.78-22.95 571.98-22.95L571.98-22.95Q570.28-22.95 568.53-22.48 566.78-22 565.43-21.25L565.43-21.25 565.43 0 562.63 0 562.63-25.05 565.43-25.05 565.23-23.35Q566.43-24.4 568.28-24.93 570.13-25.45 572.13-25.45L572.13-25.45Q574.88-25.45 576.83-24.55L576.83-24.55Q578.83-23.65 579.95-21.85 581.08-20.05 581.08-17.3L581.08-17.3 581.08 0 578.33 0ZM606.98-9.2Q606.98-5 604.68-2.25 602.38 0.5 597.73 0.5L597.73 0.5Q593.08 0.5 590.7-2.27 588.33-5.05 588.33-9.2L588.33-9.2 588.33-15.8Q588.33-20.55 590.75-23.08 593.18-25.6 597.73-25.6L597.73-25.6Q602.08-25.6 604.53-22.98 606.98-20.35 606.98-15.8L606.98-15.8 606.98-9.2ZM604.18-15.8Q604.18-19.55 602.45-21.3 600.73-23.05 597.73-23.05L597.73-23.05Q594.63-23.05 592.88-21.3 591.13-19.55 591.13-15.8L591.13-15.8 591.13-8.7Q591.13-5.7 592.9-3.85 594.68-2 597.73-2L597.73-2Q600.83-2 602.5-3.83 604.18-5.65 604.18-8.7L604.18-8.7 604.18-15.8ZM615.57 0L607.92-25.05 610.87-25.05 617.52-2.9 624.22-25.05 627.17-25.05 619.42 0 615.57 0ZM646.42 0Q641.02 0.55 638.62 0.55L638.62 0.55Q633.37 0.55 630.27-1.4 627.17-3.35 627.17-8.45L627.17-8.45 627.17-12.6Q627.17-17.55 630.62-19.25L630.62-19.25Q632.27-20.1 634.82-20.1L634.82-20.1Q637.17-20.1 639.57-19.33 641.97-18.55 643.62-17.3L643.62-17.3Q643.62-20.05 642.02-21.68 640.42-23.3 635.87-23.3L635.87-23.3 636.02-25.45Q640.82-25.45 643.1-23.93 645.37-22.4 645.9-20.3 646.42-18.2 646.42-14.9L646.42-14.9 646.42 0ZM643.62-15.15Q641.57-16.1 639.25-16.8 636.92-17.5 634.97-17.5L634.97-17.5Q629.92-17.5 629.92-12.45L629.92-12.45 629.92-8.1Q629.92-4.85 632.17-3.38 634.42-1.9 638.57-1.9L638.57-1.9Q640.72-1.9 643.62-2.3L643.62-2.3 643.62-15.15ZM654.42 0.65Q651.62-0.15 650.37-1.9 649.12-3.65 649.12-6.6L649.12-6.6 649.12-35 651.92-35 651.92-25.05 657.92-25.05 656.72-22.4 651.92-22.4 651.92-6.6Q651.92-2.6 655.22-1.5L655.22-1.5 654.42 0.65ZM664.67-32.15Q664.02-32.15 663.49-32.68 662.97-33.2 662.97-33.85L662.97-33.85Q662.97-34.5 663.47-35 663.97-35.5 664.67-35.5L664.67-35.5Q665.37-35.5 665.84-35.02 666.32-34.55 666.32-33.85L666.32-33.85Q666.32-33.15 665.82-32.65 665.32-32.15 664.67-32.15L664.67-32.15ZM663.22 0L663.22-25.05 666.02-25.05 666.02 0 663.22 0ZM692.86-9.2Q692.86-5 690.56-2.25 688.26 0.5 683.61 0.5L683.61 0.5Q678.96 0.5 676.59-2.27 674.21-5.05 674.21-9.2L674.21-9.2 674.21-15.8Q674.21-20.55 676.64-23.08 679.06-25.6 683.61-25.6L683.61-25.6Q687.96-25.6 690.41-22.98 692.86-20.35 692.86-15.8L692.86-15.8 692.86-9.2ZM690.06-15.8Q690.06-19.55 688.34-21.3 686.61-23.05 683.61-23.05L683.61-23.05Q680.51-23.05 678.76-21.3 677.01-19.55 677.01-15.8L677.01-15.8 677.01-8.7Q677.01-5.7 678.79-3.85 680.56-2 683.61-2L683.61-2Q686.71-2 688.39-3.83 690.06-5.65 690.06-8.7L690.06-8.7 690.06-15.8ZM713.41 0L713.41-17.15Q713.41-20.2 711.64-21.58 709.86-22.95 707.06-22.95L707.06-22.95Q705.36-22.95 703.61-22.48 701.86-22 700.51-21.25L700.51-21.25 700.51 0 697.71 0 697.71-25.05 700.51-25.05 700.31-23.35Q701.51-24.4 703.36-24.93 705.21-25.45 707.21-25.45L707.21-25.45Q709.96-25.45 711.91-24.55L711.91-24.55Q713.91-23.65 715.04-21.85 716.16-20.05 716.16-17.3L716.16-17.3 716.16 0 713.41 0Z" opacity="1" transform="matrix(1,0,0,1,0,0)" fill="#7997ab" class="slogan-text-1" data-fill-palette-color="secondary" id="text-1"></path></svg></g></svg></g></svg></g></svg></g><g transform="matrix(1,0,0,1,0,0.283064869492371)"><svg viewBox="0 0 143.02224984878137 113.22594779695191" height="113.22594779695191" width="143.02224984878137"><g><svg xmlns="http://www.w3.org/2000/svg" xmlns:xlink="http://www.w3.org/1999/xlink" version="1.1" x="0" y="0" viewBox="5 5 48 38" enable-background="new 0 0 58 48" xml:space="preserve" height="113.22594779695191" width="143.02224984878137" class="icon-icon-0" data-fill-palette-color="accent" id="icon-0"><path fill-rule="evenodd" clip-rule="evenodd" d="M5 43V13H53V43zM51 41V15H7V41zM9 9H49V11H9zM13 5H45V7H13zM23.651 35.008L17 28 23.651 20.991 25.016 22.398 19.73 28 25.016 33.602zM34.349 20.992L41 28 34.349 35.009 32.984 33.602 38.27 28 32.984 22.398z" fill="#ffffff" data-fill-palette-color="accent"></path></svg></g></svg></g></svg></g><defs></defs></svg><rect width="395.52" height="77.16356981484158" fill="none" stroke="none" visibility="hidden"></rect></g></svg></g></svg>