<svg xmlns="http://www.w3.org/2000/svg" version="1.1" xmlns:xlink="http://www.w3.org/1999/xlink" xmlns:svgjs="http://svgjs.dev/svgjs" width="1500" height="223" viewBox="0 0 1500 223"><g transform="matrix(1,0,0,1,-0.9090909090909918,-1.1347317943159396)"><svg viewBox="0 0 396 59" data-background-color="#ffffff" preserveAspectRatio="xMidYMid meet" height="223" width="1500" xmlns="http://www.w3.org/2000/svg" xmlns:xlink="http://www.w3.org/1999/xlink"><g id="tight-bounds" transform="matrix(1,0,0,1,0.2400000000000091,0.3002205195723775)"><svg viewBox="0 0 395.52 58.399558960855245" height="58.399558960855245" width="395.52"><g><svg viewBox="0 0 395.52 58.399558960855245" height="58.399558960855245" width="395.52"><g><svg viewBox="0 0 395.52 58.399558960855245" height="58.399558960855245" width="395.52"><g id="textblocktransform"><svg viewBox="0 0 395.52 58.399558960855245" height="58.399558960855245" width="395.52" id="textblock"><g><svg viewBox="0 0 395.52 41.57043298114771" height="41.57043298114771" width="395.52"><g transform="matrix(1,0,0,1,0,0)"><svg width="395.52" viewBox="1.49 -36.21 353.51 37.160000000000004" height="41.57043298114771" data-palette-color="#111111"><path d="M19.95-17.63L19.95-17.63Q19.95-14.62 20.19-12.44 20.43-10.25 20.84-8.73 21.24-7.2 21.79-6.26 22.34-5.32 22.92-4.8 23.51-4.27 24.11-4.09 24.71-3.91 25.24-3.91L25.24-3.91Q25.85-3.91 26.34-4.06 26.83-4.22 27.22-4.43 27.61-4.64 27.87-4.8 28.13-4.96 28.27-4.96L28.27-4.96Q28.47-4.96 28.61-4.74L28.61-4.74 29.66-3.08Q29.74-2.93 29.74-2.83L29.74-2.83Q29.74-2.71 29.64-2.62 29.54-2.54 29.47-2.47L29.47-2.47Q28.71-1.88 27.54-1.27 26.37-0.66 24.87-0.17 23.36 0.32 21.56 0.63 19.75 0.95 17.75 0.95L17.75 0.95Q15.92 0.95 14 0.6 12.08 0.24 10.28-0.6 8.47-1.44 6.87-2.83 5.27-4.22 4.08-6.29 2.88-8.35 2.19-11.15 1.49-13.94 1.49-17.63L1.49-17.63Q1.49-21.31 2.19-24.11 2.88-26.9 4.08-28.97 5.27-31.03 6.87-32.42 8.47-33.81 10.28-34.66 12.08-35.5 14-35.85 15.92-36.21 17.75-36.21L17.75-36.21Q19.75-36.21 21.56-35.89 23.36-35.57 24.87-35.08 26.37-34.59 27.54-33.98 28.71-33.37 29.47-32.79L29.47-32.79Q29.54-32.71 29.64-32.63 29.74-32.54 29.74-32.42L29.74-32.42Q29.74-32.32 29.66-32.18L29.66-32.18 28.61-30.52Q28.47-30.3 28.27-30.3L28.27-30.3Q28.13-30.3 27.87-30.46 27.61-30.62 27.22-30.82 26.83-31.03 26.34-31.19 25.85-31.35 25.24-31.35L25.24-31.35Q24.71-31.35 24.11-31.16 23.51-30.98 22.92-30.46 22.34-29.93 21.79-28.99 21.24-28.05 20.84-26.53 20.43-25 20.19-22.81 19.95-20.63 19.95-17.63ZM15.82-17.63L15.82-17.63Q15.82-14.6 16.1-12.38 16.38-10.16 16.88-8.56 17.38-6.96 18.05-5.91 18.73-4.86 19.49-4.19 20.26-3.52 21.08-3.16 21.9-2.81 22.71-2.61L22.71-2.61Q22.44-2.78 21.97-3.09 21.51-3.39 20.96-4.02 20.41-4.64 19.86-5.68 19.31-6.71 18.86-8.33 18.41-9.94 18.13-12.22 17.85-14.5 17.85-17.63L17.85-17.63Q17.85-20.75 18.13-23.03 18.41-25.32 18.86-26.93 19.31-28.54 19.86-29.58 20.41-30.62 20.96-31.24 21.51-31.86 21.97-32.17 22.44-32.47 22.71-32.64L22.71-32.64Q21.9-32.42 21.08-32.08 20.26-31.74 19.49-31.07 18.73-30.4 18.05-29.35 17.38-28.3 16.88-26.7 16.38-25.1 16.1-22.88 15.82-20.65 15.82-17.63ZM48.22 0.95L48.22 0.95Q46.26 0.95 44.3 0.61 42.33 0.27 40.52-0.56 38.72-1.39 37.16-2.77 35.59-4.15 34.43-6.21 33.27-8.28 32.61-11.1 31.96-13.92 31.96-17.65L31.96-17.65Q31.96-21.36 32.61-24.19 33.27-27.03 34.43-29.09 35.59-31.15 37.16-32.52 38.72-33.89 40.52-34.7 42.33-35.52 44.3-35.86 46.26-36.21 48.22-36.21L48.22-36.21Q50.17-36.21 52.15-35.86 54.12-35.52 55.93-34.7 57.74-33.89 59.3-32.52 60.86-31.15 62.01-29.09 63.16-27.03 63.82-24.19 64.48-21.36 64.48-17.65L64.48-17.65Q64.48-13.94 63.82-11.11 63.16-8.28 62.01-6.21 60.86-4.15 59.3-2.77 57.74-1.39 55.93-0.56 54.12 0.27 52.15 0.61 50.17 0.95 48.22 0.95ZM50.41-17.65L50.41-17.65Q50.41-14.6 50.86-12.55 51.32-10.5 52.07-9.25 52.83-8.01 53.77-7.48 54.71-6.96 55.71-6.96L55.71-6.96Q56.71-6.96 57.66-7.48 58.62-8.01 59.36-9.25 60.1-10.5 60.56-12.55 61.01-14.6 61.01-17.65L61.01-17.65Q61.01-20.7 60.56-22.75 60.1-24.8 59.36-26.05 58.62-27.29 57.66-27.82 56.71-28.34 55.71-28.34L55.71-28.34Q54.71-28.34 53.77-27.82 52.83-27.29 52.07-26.05 51.32-24.8 50.86-22.75 50.41-20.7 50.41-17.65ZM48.34-17.65L48.34-17.65Q48.34-20.7 48.84-22.92 49.34-25.15 50.12-26.61 50.9-28.08 51.89-28.85 52.88-29.61 53.88-29.81L53.88-29.81Q52.44-29.74 51.07-29.05 49.7-28.37 48.64-26.93 47.58-25.49 46.95-23.21 46.31-20.92 46.31-17.65L46.31-17.65Q46.31-14.38 46.95-12.1 47.58-9.81 48.64-8.37 49.7-6.93 51.07-6.25 52.44-5.57 53.88-5.49L53.88-5.49Q52.88-5.66 51.89-6.45 50.9-7.23 50.12-8.69 49.34-10.16 48.84-12.38 48.34-14.6 48.34-17.65ZM68.21-3.39L68.21-31.64Q68.21-32.5 68.35-33.13 68.5-33.76 68.92-34.19 69.33-34.62 70.06-34.84 70.8-35.06 71.97-35.06L71.97-35.06 83.71-35.06Q85.54-35.06 87.35-34.8 89.16-34.55 90.79-33.89 92.43-33.23 93.83-32.07 95.23-30.91 96.26-29.08 97.29-27.25 97.87-24.68 98.46-22.12 98.46-18.65L98.46-18.65Q98.46-14.58 97.83-11.61 97.21-8.64 96.15-6.57 95.09-4.49 93.64-3.21 92.18-1.93 90.51-1.21 88.84-0.49 87.04-0.24 85.25 0 83.47 0L83.47 0 71.97 0Q70.8 0 70.06-0.22 69.33-0.44 68.92-0.85 68.5-1.27 68.35-1.9 68.21-2.54 68.21-3.39L68.21-3.39ZM95.01-18.14L95.01-18.14Q95.01-21.17 94.53-23.66 94.04-26.15 92.99-27.91 91.94-29.66 90.31-30.64 88.69-31.62 86.42-31.64L86.42-31.64 86.42-3.39Q88.69-3.42 90.33-4.58 91.96-5.74 93-7.74 94.04-9.74 94.53-12.41 95.01-15.09 95.01-18.14ZM84.35-3.37L84.35-31.69 82.44-31.69 82.44-3.37 84.35-3.37ZM129.51-22.8L120.43-22.8 120.43-3Q122.8-3.34 124.77-3.61L124.77-3.61Q125.6-3.74 126.45-3.85 127.29-3.96 128-4.05 128.7-4.15 129.22-4.2 129.73-4.25 129.92-4.25L129.92-4.25Q130.34-4.25 130.63-4.09 130.93-3.93 130.93-3.44L130.93-3.44 130.93-1.2Q130.93-0.76 130.71-0.38 130.49 0 129.66 0L129.66 0 105.93 0Q104.78 0 104.06-0.22 103.34-0.44 102.92-0.85 102.51-1.27 102.36-1.9 102.21-2.54 102.21-3.39L102.21-3.39 102.21-30.81Q102.21-32.2 102.53-33.04 102.85-33.89 103.43-34.34 104.02-34.79 104.84-34.92 105.66-35.06 106.66-35.06L106.66-35.06 128.73-35.06Q129.56-35.06 129.79-34.68 130.02-34.3 130.02-33.84L130.02-33.84 130.02-32.1Q130.02-31.62 129.77-31.46 129.51-31.3 129.09-31.3L129.09-31.3Q128.85-31.3 128.35-31.35 127.85-31.4 127.19-31.48 126.53-31.57 125.77-31.67 125.02-31.76 124.26-31.88L124.26-31.88Q122.5-32.15 120.43-32.5L120.43-32.5 120.43-26.29 129.51-26.29Q130.02-26.29 130.02-25.78L130.02-25.78 130.02-23.34Q130.02-22.8 129.51-22.8L129.51-22.8ZM118.35-2.71L118.35-32.84 116.45-33.11 116.45-2.47 118.35-2.71ZM138.17-9.4L139.88-26.66Q140.15-29.32 141.32-31.1 142.49-32.89 144.23-33.95 145.96-35.01 148.09-35.45 150.21-35.89 152.38-35.89L152.38-35.89Q154.16-35.89 155.87-35.74 157.58-35.6 159.02-35.4 160.46-35.21 161.51-35.01 162.56-34.81 163.05-34.72L163.05-34.72Q163.34-34.64 163.34-34.45L163.34-34.45Q163.34-34.4 163.3-34.16L163.3-34.16 162.93-32.4Q162.88-32.23 162.8-32.19 162.71-32.15 162.64-32.15L162.64-32.15Q161.56-32.15 160.78-31.79 160-31.42 159.49-30.76 158.97-30.1 158.71-29.2 158.44-28.3 158.34-27.25L158.34-27.25 156.87-9.5Q156.68-7.35 155.78-5.44 154.87-3.54 153.26-2.12 151.65-0.71 149.31 0.12 146.96 0.95 143.94 0.95L143.94 0.95Q141.91 0.95 140.03 0.76 138.15 0.56 136.61 0.29 135.07 0.02 133.96-0.23 132.85-0.49 132.36-0.61L132.36-0.61Q132.07-0.68 132.07-0.88L132.07-0.88Q132.07-0.9 132.12-1.15L132.12-1.15 132.53-3Q132.58-3.17 132.67-3.21 132.75-3.25 132.83-3.25L132.83-3.25Q133.9-3.25 134.82-3.56 135.73-3.88 136.42-4.61 137.1-5.35 137.55-6.52 138-7.69 138.17-9.4L138.17-9.4ZM147.43-1.37L147.43-1.37Q149.28-1.81 150.64-2.67 151.99-3.54 152.88-4.66 153.77-5.79 154.25-7.04 154.73-8.3 154.82-9.5L154.82-9.5 156.29-27.25Q156.36-28.22 156.59-29.1 156.83-29.98 157.23-30.69 157.63-31.4 158.25-31.9 158.88-32.4 159.73-32.59L159.73-32.59Q158-32.52 156.96-32.01 155.92-31.49 155.36-30.73 154.8-29.96 154.59-29.03 154.38-28.1 154.31-27.25L154.31-27.25 152.82-9.5Q152.72-8.37 152.32-7.21 151.92-6.05 151.22-4.99 150.53-3.93 149.57-2.99 148.62-2.05 147.43-1.37ZM170.42-3.39L170.42-18.55 164.22-32.2Q164.07-32.54 164.03-32.81 163.98-33.08 163.98-33.35L163.98-33.35Q163.98-34.2 164.51-34.63 165.05-35.06 165.64-35.06L165.64-35.06 178.97-35.06Q179.58-35.06 180.02-34.9 180.46-34.74 180.75-34.52 181.04-34.3 181.2-34.05 181.36-33.79 181.43-33.59L181.43-33.59 185.73-21.8 189.64-33.06Q189.78-33.47 189.92-33.84 190.05-34.2 190.23-34.47 190.42-34.74 190.69-34.9 190.95-35.06 191.39-35.06L191.39-35.06 193.64-35.06Q193.98-35.06 194.23-34.91 194.47-34.77 194.47-34.42L194.47-34.42Q194.47-33.96 194.18-33.2L194.18-33.2 188.63-19.09 188.63-3.42Q188.63-2.56 188.46-1.93 188.29-1.29 187.89-0.87 187.49-0.44 186.82-0.22 186.14 0 185.12 0L185.12 0 173.6 0Q172.64 0 172.03-0.22 171.42-0.44 171.07-0.85 170.72-1.27 170.57-1.9 170.42-2.54 170.42-3.39L170.42-3.39ZM184.66-13.48L184.66-2.05Q185.24-2.05 185.61-2.09 185.97-2.12 186.19-2.28 186.41-2.44 186.49-2.75 186.56-3.05 186.56-3.61L186.56-3.61 186.56-13.67 179.75-32.25Q179.6-32.67 179.35-32.84 179.09-33.01 178.67-33.01L178.67-33.01 177.5-33.01 184.66-13.48ZM221.3-35.06L224.23-35.06Q224.69-35.06 225.06-34.77 225.42-34.47 225.42-33.64L225.42-33.64 225.42-1.81Q225.42 0 223.72 0L223.72 0 215.24 0Q214.44 0 213.91-0.32 213.39-0.63 212.97-1.05L212.97-1.05 200.47-14.11Q200.69-10.94 200.91-8.28L200.91-8.28Q200.99-7.13 201.08-6.01 201.18-4.88 201.25-3.91 201.33-2.93 201.39-2.2 201.45-1.46 201.47-1.15L201.47-1.15Q201.52-0.73 201.34-0.37 201.16 0 200.5 0L200.5 0 197.42 0Q196.98 0 196.6-0.28 196.23-0.56 196.23-1.39L196.23-1.39 196.23-33.25Q196.23-35.06 198.23-35.06L198.23-35.06 206.48-35.06Q207.41-35.06 208.03-34.67 208.65-34.28 209.29-33.64L209.29-33.64 221.18-21.85Q220.93-24.76 220.74-27.22L220.74-27.22Q220.64-28.27 220.55-29.32 220.47-30.37 220.4-31.29 220.32-32.2 220.26-32.89 220.2-33.57 220.18-33.91L220.18-33.91Q220.13-34.3 220.33-34.68 220.54-35.06 221.3-35.06L221.3-35.06ZM221.18-18.9L207.6-32.35Q207.16-32.79 206.88-32.9 206.6-33.01 206.11-33.01L206.11-33.01 204.38-33.01 221.18-16.31 221.18-18.9ZM257.21-22.8L248.13-22.8 248.13-3Q250.5-3.34 252.47-3.61L252.47-3.61Q253.3-3.74 254.15-3.85 254.99-3.96 255.7-4.05 256.4-4.15 256.92-4.2 257.43-4.25 257.62-4.25L257.62-4.25Q258.04-4.25 258.33-4.09 258.63-3.93 258.63-3.44L258.63-3.44 258.63-1.2Q258.63-0.76 258.41-0.38 258.19 0 257.36 0L257.36 0 233.63 0Q232.48 0 231.76-0.22 231.04-0.44 230.62-0.85 230.21-1.27 230.06-1.9 229.91-2.54 229.91-3.39L229.91-3.39 229.91-30.81Q229.91-32.2 230.23-33.04 230.55-33.89 231.13-34.34 231.72-34.79 232.54-34.92 233.36-35.06 234.36-35.06L234.36-35.06 256.43-35.06Q257.26-35.06 257.49-34.68 257.72-34.3 257.72-33.84L257.72-33.84 257.72-32.1Q257.72-31.62 257.47-31.46 257.21-31.3 256.79-31.3L256.79-31.3Q256.55-31.3 256.05-31.35 255.55-31.4 254.89-31.48 254.23-31.57 253.47-31.67 252.72-31.76 251.96-31.88L251.96-31.88Q250.2-32.15 248.13-32.5L248.13-32.5 248.13-26.29 257.21-26.29Q257.72-26.29 257.72-25.78L257.72-25.78 257.72-23.34Q257.72-22.8 257.21-22.8L257.21-22.8ZM246.05-2.71L246.05-32.84 244.15-33.11 244.15-2.47 246.05-2.71ZM287.38 0.05L283.96-6.64Q283.04-6.13 282.07-5.79 281.11-5.44 280.08-5.22L280.08-5.22 280.08-3.39Q280.08-2.61 279.91-1.99 279.74-1.37 279.31-0.93 278.89-0.49 278.19-0.24 277.49 0 276.44 0L276.44 0 265.63 0Q264.46 0 263.73-0.22 262.99-0.44 262.58-0.85 262.16-1.27 262.02-1.9 261.87-2.54 261.87-3.39L261.87-3.39 261.87-31.64Q261.87-32.5 262.02-33.13 262.16-33.76 262.58-34.19 262.99-34.62 263.73-34.84 264.46-35.06 265.63-35.06L265.63-35.06 276.52-35.06Q278.28-35.06 279.97-34.77 281.67-34.47 283.2-33.83 284.72-33.18 286-32.1 287.28-31.03 288.22-29.46 289.16-27.88 289.69-25.78 290.21-23.68 290.21-20.95L290.21-20.95Q290.21-18.6 289.92-16.7 289.63-14.79 289.12-13.26 288.6-11.72 287.88-10.53 287.16-9.35 286.28-8.45L286.28-8.45 291.17-2Q291.41-1.66 291.41-1.34L291.41-1.34Q291.41-0.98 291.15-0.71 290.9-0.44 290.61-0.27L290.61-0.27 289.14 0.59Q288.97 0.68 288.79 0.74 288.6 0.81 288.41 0.81L288.41 0.81Q288.14 0.81 287.87 0.63 287.6 0.46 287.38 0.05L287.38 0.05ZM286.77-20.51L286.77-20.51Q286.77-22.71 286.38-24.56 285.99-26.42 285.19-27.83 284.38-29.25 283.11-30.18 281.84-31.1 280.08-31.45L280.08-31.45 280.08-8.42Q281.84-8.81 283.11-9.85 284.38-10.89 285.19-12.45 285.99-14.01 286.38-16.05 286.77-18.09 286.77-20.51ZM278.01-3.61L278.01-31.81Q277.52-31.84 276.99-31.85 276.47-31.86 276.1-31.86L276.1-31.86 276.1-2.05Q276.69-2.05 277.06-2.09 277.42-2.12 277.64-2.28 277.86-2.44 277.93-2.75 278.01-3.05 278.01-3.61L278.01-3.61ZM317.14-31.35L317.14-31.35Q316.6-31.35 316.01-31.18 315.41-31.01 314.82-30.52 314.24-30.03 313.69-29.16 313.14-28.3 312.73-26.88 312.33-25.46 312.09-23.45 311.84-21.44 311.84-18.65L311.84-18.65Q311.84-15.89 312.09-13.84 312.33-11.79 312.73-10.33 313.14-8.86 313.69-7.92 314.24-6.98 314.82-6.45 315.41-5.91 316.01-5.7 316.6-5.49 317.14-5.49L317.14-5.49Q317.87-5.49 318.51-5.81L318.51-5.81 318.51-15.16Q318.51-15.55 318.68-15.93 318.85-16.31 319.48-16.31L319.48-16.31 322.05-16.31Q322.27-16.31 322.49-16.28 322.71-16.26 322.88-16.15 323.05-16.04 323.15-15.81 323.24-15.58 323.24-15.16L323.24-15.16 323.24-1.15Q323.24-0.73 323.15-0.5 323.05-0.27 322.88-0.16 322.71-0.05 322.49-0.02 322.27 0 322.05 0L322.05 0 319.48 0Q319.17 0 318.98-0.1 318.8-0.2 318.69-0.37 318.58-0.54 318.54-0.74 318.51-0.95 318.51-1.15L318.51-1.15 318.51-1.86Q317.73-1.29 316.77-0.78 315.82-0.27 314.69 0.12 313.55 0.51 312.23 0.73 310.92 0.95 309.4 0.95L309.4 0.95Q307.62 0.95 305.74 0.63 303.86 0.32 302.09-0.5 300.32-1.32 298.73-2.73 297.15-4.15 295.96-6.32 294.78-8.5 294.08-11.54 293.39-14.58 293.39-18.65L293.39-18.65Q293.39-22.12 294.08-24.77 294.78-27.42 295.97-29.37 297.17-31.32 298.77-32.64 300.37-33.96 302.17-34.75 303.98-35.55 305.9-35.88 307.81-36.21 309.65-36.21L309.65-36.21Q311.65-36.21 313.45-35.89 315.26-35.57 316.76-35.08 318.26-34.59 319.44-33.98 320.61-33.37 321.36-32.79L321.36-32.79Q321.44-32.71 321.54-32.63 321.63-32.54 321.63-32.42L321.63-32.42Q321.63-32.32 321.56-32.18L321.56-32.18 320.51-30.52Q320.36-30.3 320.17-30.3L320.17-30.3Q320.02-30.3 319.77-30.46 319.51-30.62 319.12-30.82 318.73-31.03 318.24-31.19 317.75-31.35 317.14-31.35ZM307.72-18.65L307.72-18.65Q307.72-15.84 308-13.73 308.28-11.62 308.78-10.07 309.28-8.52 309.95-7.48 310.62-6.45 311.39-5.77 312.16-5.1 312.98-4.74 313.8-4.37 314.6-4.17L314.6-4.17Q314.33-4.32 313.87-4.65 313.41-4.98 312.86-5.62 312.31-6.25 311.76-7.28 311.21-8.3 310.76-9.85 310.3-11.4 310.02-13.56 309.74-15.72 309.74-18.65L309.74-18.65Q309.74-21.56 310.02-23.69 310.3-25.83 310.76-27.33 311.21-28.83 311.76-29.79 312.31-30.74 312.86-31.32 313.41-31.91 313.87-32.19 314.33-32.47 314.6-32.64L314.6-32.64Q313.8-32.45 312.98-32.12 312.16-31.79 311.39-31.16 310.62-30.54 309.95-29.57 309.28-28.59 308.78-27.1 308.28-25.61 308-23.54 307.72-21.46 307.72-18.65ZM330.96-3.39L330.96-18.55 324.76-32.2Q324.61-32.54 324.56-32.81 324.51-33.08 324.51-33.35L324.51-33.35Q324.51-34.2 325.05-34.63 325.59-35.06 326.17-35.06L326.17-35.06 339.5-35.06Q340.11-35.06 340.55-34.9 340.99-34.74 341.28-34.52 341.58-34.3 341.74-34.05 341.89-33.79 341.97-33.59L341.97-33.59 346.26-21.8 350.17-33.06Q350.32-33.47 350.45-33.84 350.59-34.2 350.77-34.47 350.95-34.74 351.22-34.9 351.49-35.06 351.93-35.06L351.93-35.06 354.17-35.06Q354.52-35.06 354.76-34.91 355-34.77 355-34.42L355-34.42Q355-33.96 354.71-33.2L354.71-33.2 349.17-19.09 349.17-3.42Q349.17-2.56 349-1.93 348.83-1.29 348.42-0.87 348.02-0.44 347.35-0.22 346.68 0 345.65 0L345.65 0 334.13 0Q333.18 0 332.57-0.22 331.96-0.44 331.6-0.85 331.25-1.27 331.1-1.9 330.96-2.54 330.96-3.39L330.96-3.39ZM345.19-13.48L345.19-2.05Q345.78-2.05 346.14-2.09 346.51-2.12 346.73-2.28 346.95-2.44 347.02-2.75 347.09-3.05 347.09-3.61L347.09-3.61 347.09-13.67 340.28-32.25Q340.14-32.67 339.88-32.84 339.62-33.01 339.21-33.01L339.21-33.01 338.04-33.01 345.19-13.48Z" opacity="1" transform="matrix(1,0,0,1,0,0)" fill="#111111" class="wordmark-text-0" data-fill-palette-color="primary" id="text-0"></path></svg></g></svg></g><g transform="matrix(1,0,0,1,0,51.38421451760514)"><svg viewBox="0 0 199.14432 7.015344443250111" height="7.015344443250111" width="199.14432"><g transform="matrix(1,0,0,1,0,0)"><svg width="199.14432" viewBox="1.8 -35.55 1023.26 36.05" height="7.015344443250111" data-palette-color="#3353c4"><path d="M2.3-35L31.8-35 32.3-22.45 31.35-22.45Q29.15-29.1 27.45-31.53 25.75-33.95 22.55-33.95L22.55-33.95 21.95-33.95 21.95-1.05 26.2-1.05 26.2 0 7.95 0 7.95-1.05 12.2-1.05 12.2-33.95 11.55-33.95Q8.35-33.95 6.6-31.43 4.85-28.9 2.75-22.45L2.75-22.45 1.8-22.45 2.3-35ZM35.2-34.05L35.2-35 50.8-35 50.8-34.05 47.9-34.05 47.9-18.55 57.85-18.55 57.85-34.05 54.9-34.05 54.9-35 70.55-35 70.55-34.05 67.6-34.05 67.6-0.95 70.55-0.95 70.55 0 54.9 0 54.9-0.95 57.85-0.95 57.85-17.25 47.9-17.25 47.9-0.95 50.8-0.95 50.8 0 35.2 0 35.2-0.95 38.15-0.95 38.15-34.05 35.2-34.05ZM72.64-33.9L72.64-35 98.64-35 99.14-25.1 98.25-25.1Q96.14-30.15 93.84-32.02 91.55-33.9 87.09-33.9L87.09-33.9 85.34-33.9 85.34-18.45 87.05-18.45Q89.39-18.45 91-20.23 92.59-22 93.25-25L93.25-25 94-25 94-10.2 93.14-10.2Q92.25-13.95 90.72-15.55 89.19-17.15 86.55-17.15L86.55-17.15 85.34-17.15 85.34-1.1 87.25-1.1Q91.84-1.1 95.07-3.85 98.3-6.6 99.5-10.9L99.5-10.9 100.5-10.9 100.09 0 72.64 0 72.64-1.1 75.59-1.1 75.59-33.9 72.64-33.9ZM144.04-34.05L141.29-34.05 141.29 0 134.29 0 117.14-32.35 117.14-0.95 119.89-0.95 119.89 0 113.04 0 113.04-0.95 115.79-0.95 115.79-34.05 113.04-34.05 113.04-35 126.84-35 139.94-9.9 139.94-34.05 137.19-34.05 137.19-35 144.04-35 144.04-34.05ZM146.34-33.9L146.34-35 172.34-35 172.84-25.1 171.94-25.1Q169.84-30.15 167.54-32.02 165.24-33.9 160.79-33.9L160.79-33.9 159.04-33.9 159.04-18.45 160.74-18.45Q163.09-18.45 164.69-20.23 166.29-22 166.94-25L166.94-25 167.69-25 167.69-10.2 166.84-10.2Q165.94-13.95 164.41-15.55 162.89-17.15 160.24-17.15L160.24-17.15 159.04-17.15 159.04-1.1 160.94-1.1Q165.54-1.1 168.76-3.85 171.99-6.6 173.19-10.9L173.19-10.9 174.19-10.9 173.79 0 146.34 0 146.34-1.1 149.29-1.1 149.29-33.9 146.34-33.9ZM210.49-0.95L210.49 0 193.39 0 193.39-0.95 196.69-0.95 189.24-14.15 181.29-0.95 186.59-0.95 186.59 0 176.24 0 176.24-0.95 179.59-0.95 188.34-15.65 177.89-34 175.19-34 175.19-35 192.04-35 192.04-34 188.64-34 195.39-21.9 202.94-34 197.74-34 197.74-35 207.99-35 207.99-34 204.69-34 196.24-20.5 207.59-0.95 210.49-0.95ZM222.58-10.65Q222.58-6.05 224.16-3.6 225.73-1.15 229.83-1.15 233.93-1.15 236.13-3.7 238.33-6.25 238.33-11.45L238.33-11.45 238.33-34.05 235.08-34.05 235.08-35 242.38-35 242.38-34.05 239.63-34.05 239.63-11.8Q239.63-5.6 236.88-2.55 234.13 0.5 227.16 0.5 220.18 0.5 216.51-2.4 212.83-5.3 212.83-12.35L212.83-12.35 212.83-34.05 210.08-34.05 210.08-35 225.83-35 225.83-34.05 222.58-34.05 222.58-10.65ZM258.93-0.55L258.93-0.55Q261.43-0.55 263.36-1.9 265.28-3.25 265.28-5.98 265.28-8.7 263.21-10.15 261.13-11.6 257.31-12.68 253.48-13.75 251.76-14.55 250.03-15.35 248.48-16.65L248.48-16.65Q245.38-19.25 245.38-24.7L245.38-24.7Q245.38-29.15 248.56-32.35 251.73-35.55 257.23-35.55L257.23-35.55Q259.88-35.55 262.76-34.77 265.63-34 266.33-34 267.03-34 267.58-35L267.58-35 268.13-35 268.48-24.9 267.68-24.9Q265.28-29.25 262.66-31.88 260.03-34.5 256.96-34.5 253.88-34.5 252.18-33.08 250.48-31.65 250.48-29.28 250.48-26.9 252.51-25.63 254.53-24.35 257.48-23.55 260.43-22.75 261.36-22.45 262.28-22.15 263.66-21.63 265.03-21.1 265.91-20.53 266.78-19.95 267.76-19.07 268.73-18.2 269.28-17.15L269.28-17.15Q270.63-14.75 270.63-11.45L270.63-11.45Q270.63-6.05 267.26-2.78 263.88 0.5 258.38 0.5L258.38 0.5Q255.53 0.5 251.86-0.25 248.18-1 247.78-1L247.78-1Q247.08-1 246.43 0.5L246.43 0.5 245.73 0.5 245.23-11.4 246.08-11.4Q248.28-7.05 251.71-3.8 255.13-0.55 258.93-0.55ZM306.73-15.45L306.73-15.45 306.73-19.15Q306.73-28.3 305.83-30.7L305.83-30.7Q304.83-33.45 302.98-34.1L302.98-34.1Q301.93-34.5 300.43-34.5 298.93-34.5 297.85-34.1 296.78-33.7 296.08-32.7 295.38-31.7 294.95-30.6 294.53-29.5 294.28-27.5L294.28-27.5Q293.98-24.6 293.98-18.95L293.98-18.95 293.98-15.35Q293.98-9.25 294.45-6.68 294.93-4.1 295.63-3L295.63-3Q297.18-0.55 300.43-0.55L300.43-0.55Q304.38-0.55 305.55-3.88 306.73-7.2 306.73-15.45ZM300.33 0.5Q291.98 0.5 287.85-4.03 283.73-8.55 283.73-17.13 283.73-25.7 288.15-30.63 292.58-35.55 300.68-35.55 308.78-35.55 312.9-30.88 317.03-26.2 317.03-17.6 317.03-9 312.85-4.25 308.68 0.5 300.33 0.5ZM320.12-33.9L320.12-35 346.12-35 346.62-24.6 345.72-24.6Q343.87-30 341.45-31.95 339.02-33.9 334.22-33.9L334.22-33.9 332.82-33.9 332.82-17.65 335.07-17.65Q337.47-17.65 339.07-19.4 340.67-21.15 341.27-24.2L341.27-24.2 342.02-24.2 342.02-9.4 341.17-9.4Q340.37-13.15 338.95-14.75 337.52-16.35 335.07-16.35L335.07-16.35 332.82-16.35 332.82-1.1 339.02-1.1 339.02 0 320.12 0 320.12-1.1 323.07-1.1 323.07-33.9 320.12-33.9ZM373.92-0.55L373.92-0.55Q376.42-0.55 378.34-1.9 380.27-3.25 380.27-5.98 380.27-8.7 378.19-10.15 376.12-11.6 372.29-12.68 368.47-13.75 366.74-14.55 365.02-15.35 363.47-16.65L363.47-16.65Q360.37-19.25 360.37-24.7L360.37-24.7Q360.37-29.15 363.54-32.35 366.72-35.55 372.22-35.55L372.22-35.55Q374.87-35.55 377.74-34.77 380.62-34 381.32-34 382.02-34 382.57-35L382.57-35 383.12-35 383.47-24.9 382.67-24.9Q380.27-29.25 377.64-31.88 375.02-34.5 371.94-34.5 368.87-34.5 367.17-33.08 365.47-31.65 365.47-29.28 365.47-26.9 367.49-25.63 369.52-24.35 372.47-23.55 375.42-22.75 376.34-22.45 377.27-22.15 378.64-21.63 380.02-21.1 380.89-20.53 381.77-19.95 382.74-19.07 383.72-18.2 384.27-17.15L384.27-17.15Q385.62-14.75 385.62-11.45L385.62-11.45Q385.62-6.05 382.24-2.78 378.87 0.5 373.37 0.5L373.37 0.5Q370.52 0.5 366.84-0.25 363.17-1 362.77-1L362.77-1Q362.07-1 361.42 0.5L361.42 0.5 360.72 0.5 360.22-11.4 361.07-11.4Q363.27-7.05 366.69-3.8 370.12-0.55 373.92-0.55ZM388.72-33.9L388.72-35 414.72-35 415.22-25.1 414.32-25.1Q412.22-30.15 409.92-32.02 407.62-33.9 403.17-33.9L403.17-33.9 401.42-33.9 401.42-18.45 403.12-18.45Q405.47-18.45 407.07-20.23 408.67-22 409.32-25L409.32-25 410.07-25 410.07-10.2 409.22-10.2Q408.32-13.95 406.79-15.55 405.27-17.15 402.62-17.15L402.62-17.15 401.42-17.15 401.42-1.1 403.32-1.1Q407.92-1.1 411.14-3.85 414.37-6.6 415.57-10.9L415.57-10.9 416.57-10.9 416.17 0 388.72 0 388.72-1.1 391.67-1.1 391.67-33.9 388.72-33.9ZM437.61-34.55L437.61-34.55Q429.86-34.55 429.86-19.6L429.86-19.6 429.86-15.65Q429.86-8.55 431.91-4.53 433.96-0.5 437.96-0.5L437.96-0.5Q443.46-0.5 448.06-11.2L448.06-11.2 448.96-11.2 448.61-0.05 448.06-0.05Q447.76-0.6 447.51-0.83 447.26-1.05 446.79-1.05 446.31-1.05 443.16-0.28 440.01 0.5 436.76 0.5L436.76 0.5Q428.61 0.5 424.14-3.9 419.66-8.3 419.66-17.13 419.66-25.95 424.34-30.75 429.01-35.55 436.91-35.55L436.91-35.55Q439.96-35.55 442.89-34.77 445.81-34 446.31-34 446.81-34 447.06-34.23 447.31-34.45 447.61-35L447.61-35 448.16-35 448.56-24.15 447.66-24.15Q445.41-29.2 443.04-31.88 440.66-34.55 437.61-34.55ZM464.41-10.65Q464.41-6.05 465.99-3.6 467.56-1.15 471.66-1.15 475.76-1.15 477.96-3.7 480.16-6.25 480.16-11.45L480.16-11.45 480.16-34.05 476.91-34.05 476.91-35 484.21-35 484.21-34.05 481.46-34.05 481.46-11.8Q481.46-5.6 478.71-2.55 475.96 0.5 468.99 0.5 462.01 0.5 458.34-2.4 454.66-5.3 454.66-12.35L454.66-12.35 454.66-34.05 451.91-34.05 451.91-35 467.66-35 467.66-34.05 464.41-34.05 464.41-10.65ZM501.41-17.7L501.41-17.7 498.76-17.7 498.76-0.95 502.01-0.95 502.01 0 485.76 0 485.76-0.95 489.01-0.95 489.01-34.05 485.76-34.05 485.76-35 500.86-35Q507.36-35 510.08-34.33 512.81-33.65 513.91-32.7L513.91-32.7Q516.31-30.75 516.31-26.5 516.31-22.25 514.21-20.43 512.11-18.6 507.81-18.25L507.81-18.25 507.81-18.1Q511.86-17.55 513.46-15.7 515.06-13.85 515.06-9.5L515.06-9.5 515.06-6.85Q515.06-4.25 515.33-3.35 515.61-2.45 516.51-2.45 517.41-2.45 517.93-3.28 518.46-4.1 518.91-6.75L518.91-6.75 519.76-6.65Q519.21-2.4 517.83-0.95 516.46 0.5 512.36 0.5 508.26 0.5 506.53-1.43 504.81-3.35 504.81-8.65L504.81-8.65 504.81-12.3Q504.81-15.1 504.08-16.4 503.36-17.7 501.41-17.7ZM500.41-34.05L498.76-34.05 498.76-18.65 500.36-18.65Q503.21-18.65 504.58-20.4 505.96-22.15 505.96-26.1L505.96-26.1 505.96-27.55Q505.96-31.5 504.63-32.77 503.31-34.05 500.41-34.05L500.41-34.05ZM522.05-34.05L522.05-35 537.3-35 537.3-34.05 534.55-34.05 534.55-0.95 537.3-0.95 537.3 0 522.05 0 522.05-0.95 524.8-0.95 524.8-34.05 522.05-34.05ZM540.85-35L570.35-35 570.85-22.45 569.9-22.45Q567.7-29.1 566-31.53 564.3-33.95 561.1-33.95L561.1-33.95 560.5-33.95 560.5-1.05 564.75-1.05 564.75 0 546.5 0 546.5-1.05 550.75-1.05 550.75-33.95 550.1-33.95Q546.9-33.95 545.15-31.43 543.4-28.9 541.3-22.45L541.3-22.45 540.35-22.45 540.85-35ZM585.25-34.2L592.05-18.55 599.15-34.2 594.1-34.2 594.1-35 603.95-35 603.95-34.2 600.65-34.2 593.1-17.5 593.1-0.95 596.15-0.95 596.15 0 580.3 0 580.3-0.95 583.35-0.95 583.35-16.55 574.85-34.2 572.5-34.2 572.5-35 588.5-35 588.5-34.2 585.25-34.2ZM631.29-0.95L634.84-0.95 631.19-11.75 621.29-11.75 617.44-0.95 621.19-0.95 621.19 0 613.54 0 613.54-0.95 615.89-0.95 628.64-35.3 632.74-35.3 645.34-0.95 647.64-0.95 647.64 0 631.29 0 631.29-0.95ZM630.79-12.85L626.44-25.95 621.74-12.85 630.79-12.85ZM680.19-34.05L677.44-34.05 677.44 0 670.44 0 653.29-32.35 653.29-0.95 656.04-0.95 656.04 0 649.19 0 649.19-0.95 651.94-0.95 651.94-34.05 649.19-34.05 649.19-35 662.99-35 676.09-9.9 676.09-34.05 673.34-34.05 673.34-35 680.19-35 680.19-34.05ZM717.14-18.1L717.14-18.1Q717.14-7.8 711.34-3.75L711.34-3.75Q705.99 0 696.64 0L696.64 0 682.49 0 682.49-0.95 685.79-0.95 685.79-34.05 682.49-34.05 682.49-35 697.94-35Q707.54-35 712.34-31.08 717.14-27.15 717.14-18.1ZM695.54-34.05L695.54-0.95 697.44-0.95Q702.49-0.95 704.66-4.53 706.84-8.1 706.84-16.5L706.84-16.5 706.84-19.4Q706.84-30.65 702.54-32.95L702.54-32.95Q700.49-34.05 696.74-34.05L696.74-34.05 695.54-34.05ZM729.43-34.05L729.43-35 744.68-35 744.68-34.05 741.93-34.05 741.93-0.95 744.68-0.95 744.68 0 729.43 0 729.43-0.95 732.18-0.95 732.18-34.05 729.43-34.05ZM778.18-34.05L775.43-34.05 775.43 0 768.43 0 751.28-32.35 751.28-0.95 754.03-0.95 754.03 0 747.18 0 747.18-0.95 749.93-0.95 749.93-34.05 747.18-34.05 747.18-35 760.98-35 774.08-9.9 774.08-34.05 771.33-34.05 771.33-35 778.18-35 778.18-34.05ZM811.68-34.05L808.93-34.05 808.93 0 801.93 0 784.78-32.35 784.78-0.95 787.53-0.95 787.53 0 780.68 0 780.68-0.95 783.43-0.95 783.43-34.05 780.68-34.05 780.68-35 794.48-35 807.58-9.9 807.58-34.05 804.83-34.05 804.83-35 811.68-35 811.68-34.05ZM837.48-15.45L837.48-15.45 837.48-19.15Q837.48-28.3 836.58-30.7L836.58-30.7Q835.58-33.45 833.73-34.1L833.73-34.1Q832.68-34.5 831.18-34.5 829.68-34.5 828.6-34.1 827.53-33.7 826.83-32.7 826.13-31.7 825.7-30.6 825.28-29.5 825.03-27.5L825.03-27.5Q824.73-24.6 824.73-18.95L824.73-18.95 824.73-15.35Q824.73-9.25 825.2-6.68 825.68-4.1 826.38-3L826.38-3Q827.93-0.55 831.18-0.55L831.18-0.55Q835.13-0.55 836.3-3.88 837.48-7.2 837.48-15.45ZM831.08 0.5Q822.73 0.5 818.6-4.03 814.48-8.55 814.48-17.13 814.48-25.7 818.9-30.63 823.33-35.55 831.43-35.55 839.53-35.55 843.65-30.88 847.78-26.2 847.78-17.6 847.78-9 843.6-4.25 839.43 0.5 831.08 0.5ZM860.17-34.05L868.57-9.05 877.27-34.05 873.37-34.05 873.37-35 881.02-35 881.02-34.05 878.67-34.05 866.62 0.5 862.42 0.5 849.67-34.05 847.37-34.05 847.37-35 863.72-35 863.72-34.05 860.17-34.05ZM891.87-0.95L895.42-0.95 891.77-11.75 881.87-11.75 878.02-0.95 881.77-0.95 881.77 0 874.12 0 874.12-0.95 876.47-0.95 889.22-35.3 893.32-35.3 905.92-0.95 908.22-0.95 908.22 0 891.87 0 891.87-0.95ZM891.37-12.85L887.02-25.95 882.32-12.85 891.37-12.85ZM905.82-35L935.32-35 935.82-22.45 934.87-22.45Q932.67-29.1 930.97-31.53 929.27-33.95 926.07-33.95L926.07-33.95 925.47-33.95 925.47-1.05 929.72-1.05 929.72 0 911.47 0 911.47-1.05 915.72-1.05 915.72-33.95 915.07-33.95Q911.87-33.95 910.12-31.43 908.37-28.9 906.27-22.45L906.27-22.45 905.32-22.45 905.82-35ZM938.92-34.05L938.92-35 954.17-35 954.17-34.05 951.42-34.05 951.42-0.95 954.17-0.95 954.17 0 938.92 0 938.92-0.95 941.67-0.95 941.67-34.05 938.92-34.05ZM980.46-15.45L980.46-15.45 980.46-19.15Q980.46-28.3 979.56-30.7L979.56-30.7Q978.56-33.45 976.71-34.1L976.71-34.1Q975.66-34.5 974.16-34.5 972.66-34.5 971.59-34.1 970.51-33.7 969.81-32.7 969.11-31.7 968.69-30.6 968.26-29.5 968.01-27.5L968.01-27.5Q967.71-24.6 967.71-18.95L967.71-18.95 967.71-15.35Q967.71-9.25 968.19-6.68 968.66-4.1 969.36-3L969.36-3Q970.91-0.55 974.16-0.55L974.16-0.55Q978.11-0.55 979.29-3.88 980.46-7.2 980.46-15.45ZM974.06 0.5Q965.71 0.5 961.59-4.03 957.46-8.55 957.46-17.13 957.46-25.7 961.89-30.63 966.31-35.55 974.41-35.55 982.51-35.55 986.64-30.88 990.76-26.2 990.76-17.6 990.76-9 986.59-4.25 982.41 0.5 974.06 0.5ZM1025.06-34.05L1022.31-34.05 1022.31 0 1015.31 0 998.16-32.35 998.16-0.95 1000.91-0.95 1000.91 0 994.06 0 994.06-0.95 996.81-0.95 996.81-34.05 994.06-34.05 994.06-35 1007.86-35 1020.96-9.9 1020.96-34.05 1018.21-34.05 1018.21-35 1025.06-35 1025.06-34.05Z" opacity="1" transform="matrix(1,0,0,1,0,0)" fill="#3353c4" class="slogan-text-1" data-fill-palette-color="secondary" id="text-1"></path></svg></g></svg></g></svg></g></svg></g><g></g></svg></g><defs></defs></svg><rect width="395.52" height="58.399558960855245" fill="none" stroke="none" visibility="hidden"></rect></g></svg></g></svg>